<svg width="14" height="14" viewBox="0 0 14 14" fill="none" xmlns="http://www.w3.org/2000/svg">
<path d="M12.5438 8.53752C11.5622 8.8128 10.5249 8.82182 9.5386 8.56366C8.55229 8.3055 7.65248 7.78946 6.93156 7.06854C6.21064 6.34762 5.6946 5.4478 5.43644 4.46149C5.17828 3.47519 5.1873 2.43794 5.46258 1.45627C4.49474 1.72565 3.61437 2.24391 2.90917 2.95941C2.20396 3.67492 1.69852 4.56271 1.44319 5.53435C1.18787 6.50599 1.19157 7.52756 1.45393 8.49732C1.71629 9.46709 2.22815 10.3512 2.93853 11.0616C3.64891 11.7719 4.53301 12.2838 5.50277 12.5462C6.47253 12.8085 7.49411 12.8122 8.46575 12.5569C9.43739 12.3016 10.3252 11.7961 11.0407 11.0909C11.7562 10.3857 12.2744 9.50535 12.5438 8.53752Z" stroke="black" stroke-linecap="round" stroke-linejoin="round"/>
</svg>